PathFileType	4	(X/Y/Z)	output.trc
DataRate	CameraRate	NumFrames	NumMarkers	Units	OrigDataRate	OrigDataStartFrame	OrigNumFrames
120	120	14	18	mm	120	2964	1
Frame#	Time	K4ABT_JOINT_PELVISx			K4ABT_JOINT_SPINE_NAVEL			T8			C7			K4ABT_JOINT_CLAVICLE_LEFT			K4ABT_JOINT_SHOULDER_LEFT			K4ABT_JOINT_ELBOW_LEFT			K4ABT_JOINT_WRIST_LEFT			K4ABT_JOINT_HAND_LEFT			K4ABT_JOINT_HANDTIP_LEFT			K4ABT_JOINT_THUMB_LEFT			K4ABT_JOINT_CLAVICLE_RIGHT			GH			Elbow_Midpoint			Wrist_Midpointx			K4ABT_JOINT_HAND_RIGHT			K4ABT_JOINT_HANDTIP_RIGHT			K4ABT_JOINT_THUMB_RIGHTx
		X1	Y1	Z1	X2	Y2	Z2	X3	Y3	Z3	X4	Y4	Z4	X5	Y5	Z5	X6	Y6	Z6	X7	Y7	Z7	X8	Y8	Z8	X9	Y9	Z9	X10	Y10	Z10	X11	Y11	Z11	X12	Y12	Z12	X13	Y13	Z13	X14	Y14	Z14	X15	Y15	Z15	X16	Y16	Z16	X17	Y17	Z17	X18	Y18	Z18
2964	33.824806	-275.349627	-253.689640	1564.955689	299.839431	-94.979645	1519.644463	304.630697	33.999635	1485.944860	302.175324	232.525156	1443.408729	309.271797	206.531150	1480.494867	307.263189	214.263315	1613.952976	118.590089	198.359624	1789.754163	-95.258356	215.641234	1821.567993	-116.386800	130.566492	1840.611589	-118.922186	30.117845	1850.743928	-114.622679	98.279688	1835.524083	297.839541	192.883278	1420.124525	269.267309	154.186657	1306.927413	6.433428	164.708495	1319.504081	-204.131994	199.609346	1371.367407	-275.636487	197.451799	1306.026078	-362.283812	240.899453	1284.468826	-283.765172	226.115366	1284.239203
2965	33.833105	-275.257905	-253.736226	1564.915547	299.728895	-95.037271	1519.547290	304.525682	33.928398	1485.789527	302.446758	232.487246	1443.359230	309.473488	206.459576	1480.436547	307.284908	213.942340	1613.909704	117.758518	197.073960	1788.721184	-96.246841	214.048228	1819.674889	-116.981009	129.268395	1840.523892	-118.969984	28.873562	1851.370861	-114.784249	96.946806	1835.512546	298.056483	192.864743	1420.050151	269.225611	154.206013	1306.901955	6.392348	164.736056	1319.552745	-203.953185	200.210394	1371.950471	-275.038050	197.390152	1306.160401	-361.358839	241.444208	1284.473604	-283.355997	226.078343	1284.292959
2966	33.841404	-275.219141	-253.735686	1564.897744	299.678741	-95.031526	1519.468513	304.505290	33.933490	1485.649994	302.627710	232.525558	1443.239971	309.620578	206.482760	1480.320265	307.328722	213.762876	1613.819670	117.198463	195.977461	1787.943578	-96.965811	212.551357	1818.209071	-117.410137	128.006277	1840.479942	-119.038888	27.654890	1851.959899	-114.944860	95.652174	1835.513659	298.205048	192.905370	1419.921721	269.206526	154.173582	1306.824597	6.348308	164.706662	1319.605498	-203.851189	200.594947	1372.431587	-274.515033	197.334079	1306.178875	-360.650215	241.798315	1284.507606	-283.004576	226.047949	1284.339923
2967	33.849703	-275.198635	-253.718897	1564.887643	299.649406	-95.003932	1519.396077	304.514076	33.964900	1485.515909	302.777463	232.590151	1443.096658	309.748842	206.538615	1480.183999	307.380154	213.632204	1613.713512	116.732026	194.946187	1787.254024	-97.591852	211.087632	1816.890579	-117.782346	126.756565	1840.451075	-119.115068	26.445049	1852.535871	-115.105141	94.370732	1835.519134	298.330037	192.966397	1419.774652	269.195238	154.123296	1306.729343	6.303248	164.657631	1319.659661	-203.775677	200.904855	1372.877551	-274.018020	197.279928	1306.157405	-360.016187	242.086686	1284.551684	-282.673070	226.019840	1284.384545
2968	33.858002	-275.178130	-253.702108	1564.877543	299.620072	-94.976338	1519.323642	304.522861	33.996309	1485.381823	302.927217	232.654744	1442.953345	309.877106	206.594470	1480.047733	307.431587	213.501533	1613.607354	116.265589	193.914913	1786.564469	-98.217893	209.623907	1815.572088	-118.154554	125.506854	1840.422209	-119.191249	25.235207	1853.111843	-115.265422	93.089289	1835.524608	298.455026	193.027423	1419.627583	269.183950	154.073010	1306.634089	6.258187	164.608599	1319.713824	-203.700165	201.214762	1373.323515	-273.521007	197.225776	1306.135935	-359.382159	242.375057	1284.595762	-282.341563	225.991731	1284.429168
2969	33.866301	-275.157625	-253.685319	1564.867442	299.590737	-94.948744	1519.251207	304.531647	34.027719	1485.247738	303.076971	232.719337	1442.810033	310.005370	206.650326	1479.911467	307.483019	213.370861	1613.501197	115.799152	192.883639	1785.874915	-98.843934	208.160182	1814.253597	-118.526762	124.257142	1840.393342	-119.267429	24.025366	1853.687815	-115.425702	91.807846	1835.530083	298.580014	193.088449	1419.480514	269.172662	154.022724	1306.538835	6.213127	164.559568	1319.767986	-203.624654	201.524669	1373.769479	-273.023994	197.171625	1306.114464	-358.748131	242.663429	1284.639840	-282.010057	225.963622	1284.473790
2970	33.874600	-275.194760	-253.692540	1564.808353	299.637006	-94.914416	1519.207739	304.607139	34.094309	1485.216478	303.145502	232.821324	1442.730812	310.083418	206.753733	1479.843913	307.562906	213.334009	1613.470215	115.813253	192.158638	1785.786193	-98.953579	206.997907	1813.854336	-118.696962	123.187688	1840.475456	-119.385023	22.968488	1854.108077	-115.583979	90.735465	1835.546960	298.641705	193.177228	1419.404993	269.185916	153.949564	1306.502833	6.171039	164.458742	1319.807430	-203.633613	201.567593	1374.045273	-272.746605	197.104744	1306.059544	-358.473748	242.702509	1284.715016	-281.824877	225.934101	1284.511900
2971	33.882899	-275.253246	-253.708654	1564.731116	299.711283	-94.877593	1519.175002	304.707341	34.173932	1485.223309	303.183944	232.937163	1442.675333	310.142864	206.874755	1479.801813	307.653334	213.331912	1613.467083	116.005364	191.547093	1785.920044	-98.871930	205.947301	1813.795594	-118.792330	122.185008	1840.598681	-119.517958	21.968274	1854.470659	-115.741512	89.740529	1835.568060	298.679948	193.276287	1419.355977	269.208261	153.867930	1306.488780	6.130051	164.338730	1319.841421	-203.673864	201.511617	1374.258029	-272.550574	197.033147	1305.992232	-358.332593	242.649242	1284.801711	-281.693903	225.904056	1284.547597
2972	33.891197	-275.311733	-253.724768	1564.653879	299.785559	-94.840770	1519.142265	304.807544	34.253555	1485.230140	303.222387	233.053002	1442.619854	310.202310	206.995777	1479.759712	307.743761	213.329815	1613.463950	116.197475	190.935549	1786.053894	-98.790282	204.896695	1813.736853	-118.887698	121.182329	1840.721906	-119.650893	20.968060	1854.833241	-115.899046	88.745593	1835.589161	298.718191	193.375346	1419.306961	269.230606	153.786296	1306.474727	6.089063	164.218717	1319.875412	-203.714114	201.455640	1374.470785	-272.354543	196.961551	1305.924920	-358.191437	242.595975	1284.888407	-281.562929	225.874012	1284.583295
2973	33.899496	-275.370220	-253.740882	1564.576643	299.859835	-94.803947	1519.109528	304.907746	34.333178	1485.236971	303.260830	233.168840	1442.564375	310.261756	207.116800	1479.717612	307.834189	213.327718	1613.460817	116.389586	190.324004	1786.187745	-98.708633	203.846088	1813.678112	-118.983066	120.179649	1840.845131	-119.783828	19.967845	1855.195823	-116.056580	87.750657	1835.610261	298.756433	193.474405	1419.257945	269.252952	153.704663	1306.460674	6.048076	164.098704	1319.909404	-203.754365	201.399664	1374.683542	-272.158512	196.889954	1305.857608	-358.050282	242.542708	1284.975103	-281.431955	225.843967	1284.618992
2974	33.907795	-275.414844	-253.714742	1564.493264	299.917785	-94.727314	1519.065740	304.973165	34.451899	1485.231970	303.236045	233.330358	1442.539461	310.260304	207.277030	1479.700519	307.877343	213.386793	1613.480398	116.685682	190.018135	1786.528378	-98.488282	203.084174	1814.045382	-118.965240	119.380649	1841.012171	-119.928759	19.161708	1855.466932	-116.244402	86.971053	1835.681067	298.738510	193.623790	1419.231096	269.278915	153.698688	1306.445888	6.012946	163.914038	1320.027531	-203.813880	200.985545	1375.053226	-271.799051	196.770796	1305.807089	-357.875682	242.117203	1284.997680	-281.073545	225.762230	1284.767486
2975	33.916094	-275.453817	-253.671374	1564.407380	299.969078	-94.634447	1519.017446	305.024400	34.586563	1485.222144	303.185478	233.510502	1442.527010	310.234021	207.453248	1479.693623	307.901220	213.470811	1613.509241	117.024176	189.836903	1786.953325	-98.211376	202.439972	1814.586356	-118.901260	118.664697	1841.197076	-120.078580	18.434704	1855.700744	-116.444575	86.279251	1835.772141	298.697684	193.793696	1419.213286	269.306355	153.723563	1306.430802	5.980206	163.703009	1320.179966	-203.881251	200.425394	1375.486896	-271.372951	196.632245	1305.763417	-357.687446	241.539919	1284.994113	-280.622400	225.659415	1284.961973
2976	33.924393	-275.492789	-253.628006	1564.321497	300.020371	-94.541581	1518.969151	305.075636	34.721226	1485.212318	303.134911	233.690645	1442.514560	310.207738	207.629465	1479.686727	307.925098	213.554830	1613.538083	117.362671	189.655672	1787.378273	-97.934470	201.795770	1815.127330	-118.837279	117.948746	1841.381982	-120.228402	17.707701	1855.934557	-116.644748	85.587448	1835.863215	298.656859	193.963601	1419.195476	269.333794	153.748438	1306.415715	5.947466	163.491980	1320.332400	-203.948621	199.865243	1375.920567	-270.946851	196.493694	1305.719745	-357.499209	240.962634	1284.990546	-280.171254	225.556600	1285.156460
2977	33.932692	-275.531762	-253.584638	1564.235613	300.071663	-94.448715	1518.920857	305.126871	34.855889	1485.202492	303.084344	233.870789	1442.502109	310.181455	207.805683	1479.679830	307.948976	213.638848	1613.566926	117.701166	189.474440	1787.803220	-97.657563	201.151568	1815.668304	-118.773299	117.232795	1841.566887	-120.378224	16.980697	1856.168369	-116.844921	84.895645	1835.954288	298.616034	194.133507	1419.177666	269.361234	153.773313	1306.400629	5.914725	163.280951	1320.484834	-204.015992	199.305092	1376.354238	-270.520752	196.355143	1305.676074	-357.310973	240.385350	1284.986979	-279.720109	225.453785	1285.350947
